# xmcd
#
# Track frame offsets:
#	150
#	19253
#	44023
#	74515
#	98148
#	124460
#	149653
#	181773
#	201168
#	224263
#	253953
#
# Disc length: 3712 seconds
# Revision: 7
# Processed by: cddbd v1.5.2PL0 Copyright (c) Steve Scherf et al.
# Submitted via: dBpowerAMP V12.0
#
DISCID=b50e7e0b
DTITLE=Sherman Robertson - Going Back Home
DYEAR=1998
DGENRE=Blues
TTITLE0=Guitar Man
TTITLE1=I Don't Want no Woman
TTITLE2=Me, my Guitar And The Blues
TTITLE3=Going Back Home
TTITLE4=Everybody Loves Somebody
TTITLE5=Don't Throw Your Love on me so Strong
TTITLE6=I Wonder Why
TTITLE7=Fall in Love
TTITLE8=Special Kind of Loving
TTITLE9=Looking at The Bottom
TTITLE10=Driving All Night
EXTD=
EXTT0=
EXTT1=
EXTT2=
EXTT3=
EXTT4=
EXTT5=
EXTT6=
EXTT7=
EXTT8=
EXTT9=
EXTT10=
PLAYORDER=
